<svg width="56" height="56" viewBox="0 0 56 56" fill="none" xmlns="http://www.w3.org/2000/svg">
<g clip-path="url(#clip0_25183_64588)">
<path d="M28 56C43.464 56 56 43.464 56 28C56 12.536 43.464 0 28 0C12.536 0 0 12.536 0 28C0 43.464 12.536 56 28 56Z" fill="#F2F2F2"/>
<g clip-path="url(#clip1_25183_64588)">
<path fill-rule="evenodd" clip-rule="evenodd" d="M12 35.915H28.1725L44 20.085H12V35.915Z" fill="url(#paint0_linear_25183_64588)"/>
<path fill-rule="evenodd" clip-rule="evenodd" d="M30.9903 23.0616L27.8404 23.0597V30.5493L25.0887 23.0597H22.3604L20.0109 29.3231C19.7607 27.7438 18.1271 27.1984 16.8418 26.7896C15.9931 26.5171 15.0927 26.1162 15.101 25.6732C15.108 25.3095 15.584 24.9717 16.527 25.0225C17.161 25.0561 17.7199 25.1072 18.8324 25.6438L19.9267 23.7382C18.9111 23.2215 17.5081 22.8949 16.3584 22.8937H16.3517C15.011 22.8937 13.8936 23.3281 13.201 24.044C12.7183 24.544 12.4583 25.1789 12.4474 25.8814C12.4298 26.8479 12.7843 27.5337 13.529 28.0804C14.1578 28.5417 14.9621 28.8404 15.6709 29.0602C16.5454 29.3312 17.2591 29.5666 17.2508 30.0691C17.2444 30.2519 17.175 30.4223 17.0436 30.5609C16.8257 30.7857 16.4907 30.8702 16.0283 30.8789C15.1361 30.8977 14.4743 30.7579 13.4202 30.1351L12.4474 32.0675C13.4985 32.6654 14.7432 33.016 16.0132 33.016L16.1766 33.0141C17.2822 32.9943 18.1744 32.6792 18.8871 32.1053C18.9279 32.073 18.9647 32.0397 19.0025 32.0062L18.6865 32.85H21.5479L22.0282 31.3895C22.5308 31.5613 23.1027 31.6562 23.7102 31.6562C24.3013 31.6562 24.8582 31.5654 25.3519 31.4038L25.8147 32.85H30.4813V29.8261H31.4988C33.9591 29.8261 35.4141 28.5731 35.4141 26.4737C35.4141 24.1349 34.0003 23.0618 30.9901 23.0618L30.9903 23.0616ZM23.7103 29.4702C23.3428 29.4702 22.9982 29.406 22.7011 29.2937L23.6995 26.1437H23.7184L24.6995 29.3026C24.4045 29.4073 24.068 29.4702 23.7104 29.4702H23.7103ZM31.1752 27.6603H30.4814V25.122H31.1752C32.1007 25.122 32.8387 25.4294 32.8387 26.3744C32.8387 27.3522 32.1007 27.6603 31.1752 27.6603Z" fill="white"/>
</g>
</g>
<defs>
<linearGradient id="paint0_linear_25183_64588" x1="28" y1="20.085" x2="28" y2="35.915" gradientUnits="userSpaceOnUse">
<stop stop-color="#00B1EB"/>
<stop offset="0.212" stop-color="#009AD9"/>
<stop offset="0.519" stop-color="#007FC4"/>
<stop offset="0.792" stop-color="#006EB8"/>
<stop offset="1" stop-color="#0069B4"/>
</linearGradient>
<clipPath id="clip0_25183_64588">
<rect width="56" height="56" fill="white"/>
</clipPath>
<clipPath id="clip1_25183_64588">
<rect width="32" height="15.8301" fill="white" transform="translate(12 20.085)"/>
</clipPath>
</defs>
</svg>
