<svg width="112" height="112" viewBox="0 0 112 112" fill="none" xmlns="http://www.w3.org/2000/svg">
<path fill-rule="evenodd" clip-rule="evenodd" d="M90.4428 36.3771L95.4425 51.5272L79.0587 63.6624L85.3683 83.0844L72.4142 92.4553L56.2136 80.5834L40.2197 92.4299L27.2101 83.1499L33.3196 63.8066L16.5977 51.5526L21.5628 36.3771H41.9831L47.9928 17.3499L63.9918 17.2844L70.1944 36.3771H90.4428ZM57.0672 19.5338L54.934 19.5425L47.3175 43.6571H21.562L20.9 45.6805L41.8333 61.0206L34.1513 85.3425L35.8859 86.5798L56.1897 71.5411L76.7165 86.5832L78.4437 85.3338L70.5157 60.93L91.1086 45.6771L90.442 43.6571H64.9042L57.0672 19.5338Z" fill="#1B1B1B"/>
</svg>
